<svg xmlns="http://www.w3.org/2000/svg" width="192.5" height="778.8" viewBox="0 0 192.5 778.8">
  <path id="パス_247" data-name="パス 247" d="M16.7,116,2.1,42.1H15.6l6.3,37.3q1,5.8,1.95,11.7T25.7,103h.4q1.2-6,2.4-11.9t2.4-11.7l9-37.3H51.4l9,37.3q1.3,5.7,2.45,11.65T65.3,103h.5q.8-6,1.7-11.9t1.7-11.7l6.5-37.3H88.3L74.2,116H57.8L48.7,77.2q-.9-4.3-1.75-8.5T45.4,60.2H45q-.7,4.3-1.6,8.5t-1.7,8.5L32.8,116Zm105.7,1.4a27.778,27.778,0,0,1-13.9-3.5,25.6,25.6,0,0,1-9.85-10A31.387,31.387,0,0,1,95,88.3a32.361,32.361,0,0,1,2.15-12.15,28.832,28.832,0,0,1,5.8-9.2,25.253,25.253,0,0,1,8.2-5.85,23.244,23.244,0,0,1,9.45-2,22.467,22.467,0,0,1,12.6,3.35,20.781,20.781,0,0,1,7.7,9.3,34.068,34.068,0,0,1,2.6,13.75q0,1.9-.15,3.55a16.281,16.281,0,0,1-.45,2.75H107.8a18.52,18.52,0,0,0,2.7,8.3,15.221,15.221,0,0,0,5.65,5.25,16.564,16.564,0,0,0,7.95,1.85,20.436,20.436,0,0,0,6.6-1.05,30.784,30.784,0,0,0,6.2-2.95l4.5,8.2a38.575,38.575,0,0,1-8.8,4.3A30.9,30.9,0,0,1,122.4,117.4ZM107.6,82.9h24.7q0-6.3-2.9-9.95t-8.6-3.65a12.007,12.007,0,0,0-5.9,1.55,13.423,13.423,0,0,0-4.75,4.55A17.97,17.97,0,0,0,107.6,82.9Zm61,34.5a12.7,12.7,0,0,1-7.4-1.95,10.619,10.619,0,0,1-4-5.5,25.768,25.768,0,0,1-1.2-8.25V36.3h13.1v66a4.859,4.859,0,0,0,.9,3.35,2.62,2.62,0,0,0,1.9.95,6.444,6.444,0,0,0,.8-.05l1.2-.15,1.6,9.8a16.2,16.2,0,0,1-2.85.85A19.89,19.89,0,0,1,168.6,117.4Zm20.2-1.4V54.8a26.621,26.621,0,0,1,1.85-10.2,15.024,15.024,0,0,1,5.9-7.1q4.05-2.6,10.65-2.6a27.567,27.567,0,0,1,5.7.55,32.751,32.751,0,0,1,4.5,1.25l-2.5,9.9a14.518,14.518,0,0,0-6-1.3,6.412,6.412,0,0,0-5.25,2.25q-1.85,2.25-1.85,7.05V116Zm-7.5-45.1V61.1l8.2-.6h23.2V70.9Zm51.9,46.5a16.846,16.846,0,0,1-8.55-2.1,15.357,15.357,0,0,1-5.75-5.75,16.642,16.642,0,0,1-2.1-8.45,15.406,15.406,0,0,1,7.8-13.85q7.8-4.85,24.8-6.75a16.507,16.507,0,0,0-1.05-5.45,8.142,8.142,0,0,0-3.1-3.9,10.335,10.335,0,0,0-5.85-1.45,21.142,21.142,0,0,0-8.1,1.6,51.178,51.178,0,0,0-7.6,3.9L219,66.4a65.731,65.731,0,0,1,6.65-3.55,44.466,44.466,0,0,1,7.6-2.7,33.538,33.538,0,0,1,8.45-1.05,21.982,21.982,0,0,1,11.6,2.8,17.172,17.172,0,0,1,6.9,8.15,33.012,33.012,0,0,1,2.3,13.05V116H251.8l-1-6.1h-.4a42.7,42.7,0,0,1-8,5.3A19.914,19.914,0,0,1,233.2,117.4Zm4.2-10.4a12.671,12.671,0,0,0,6.15-1.55,29.1,29.1,0,0,0,5.85-4.35V88.7a55.287,55.287,0,0,0-11.9,2.5,14.271,14.271,0,0,0-6.25,3.85,7.748,7.748,0,0,0-1.85,5.05q0,3.7,2.25,5.3A9.688,9.688,0,0,0,237.4,107Zm40.7,9V60.5h10.7l1.1,9.9h.2a24.486,24.486,0,0,1,7.2-8.35,14.808,14.808,0,0,1,8.6-2.95,18.471,18.471,0,0,1,3.65.3,10.784,10.784,0,0,1,2.65.9L310,71.6q-1.5-.4-2.75-.65a15.841,15.841,0,0,0-3.05-.25,12.008,12.008,0,0,0-6.85,2.6q-3.65,2.6-6.15,8.9V116Zm64.4,1.4a27.778,27.778,0,0,1-13.9-3.5,25.6,25.6,0,0,1-9.85-10,31.387,31.387,0,0,1-3.65-15.6,32.361,32.361,0,0,1,2.15-12.15,28.832,28.832,0,0,1,5.8-9.2,25.253,25.253,0,0,1,8.2-5.85,23.244,23.244,0,0,1,9.45-2,22.467,22.467,0,0,1,12.6,3.35,20.782,20.782,0,0,1,7.7,9.3,34.068,34.068,0,0,1,2.6,13.75q0,1.9-.15,3.55A16.283,16.283,0,0,1,363,91.8H327.9a18.52,18.52,0,0,0,2.7,8.3,15.22,15.22,0,0,0,5.65,5.25,16.564,16.564,0,0,0,7.95,1.85,20.436,20.436,0,0,0,6.6-1.05,30.784,30.784,0,0,0,6.2-2.95l4.5,8.2a38.575,38.575,0,0,1-8.8,4.3A30.9,30.9,0,0,1,342.5,117.4ZM327.7,82.9h24.7q0-6.3-2.9-9.95t-8.6-3.65a12.007,12.007,0,0,0-5.9,1.55,13.423,13.423,0,0,0-4.75,4.55A17.97,17.97,0,0,0,327.7,82.9Zm97.9,34.5a17.606,17.606,0,0,1-7.65-1.9,28.346,28.346,0,0,1-7.45-5.3h-.4L409,116H398.7V36.3h13.1V56.9l-.4,9.1a31.224,31.224,0,0,1,7.6-5,20.725,20.725,0,0,1,20.2,1.6,21.967,21.967,0,0,1,7.5,9.85,39.012,39.012,0,0,1,2.6,14.85,35.779,35.779,0,0,1-3.4,16.25,25.9,25.9,0,0,1-8.8,10.3A20.572,20.572,0,0,1,425.6,117.4Zm-2.8-10.9a11.013,11.013,0,0,0,6.65-2.15A14.186,14.186,0,0,0,434.1,98a27.83,27.83,0,0,0,1.7-10.4,31.906,31.906,0,0,0-1.25-9.55A12.287,12.287,0,0,0,430.7,72a10.652,10.652,0,0,0-6.9-2.1,12.388,12.388,0,0,0-5.9,1.55,27.962,27.962,0,0,0-6.1,4.65v25.8a16.163,16.163,0,0,0,5.75,3.6A16.6,16.6,0,0,0,422.8,106.5Zm63.3,10.9a27.778,27.778,0,0,1-13.9-3.5,25.6,25.6,0,0,1-9.85-10,31.387,31.387,0,0,1-3.65-15.6,32.361,32.361,0,0,1,2.15-12.15,28.832,28.832,0,0,1,5.8-9.2,25.253,25.253,0,0,1,8.2-5.85,23.244,23.244,0,0,1,9.45-2,22.467,22.467,0,0,1,12.6,3.35,20.782,20.782,0,0,1,7.7,9.3,34.068,34.068,0,0,1,2.6,13.75q0,1.9-.15,3.55a16.283,16.283,0,0,1-.45,2.75H471.5a18.52,18.52,0,0,0,2.7,8.3,15.22,15.22,0,0,0,5.65,5.25,16.564,16.564,0,0,0,7.95,1.85,20.436,20.436,0,0,0,6.6-1.05,30.784,30.784,0,0,0,6.2-2.95l4.5,8.2a38.575,38.575,0,0,1-8.8,4.3A30.9,30.9,0,0,1,486.1,117.4ZM471.3,82.9H496q0-6.3-2.9-9.95t-8.6-3.65a12.007,12.007,0,0,0-5.9,1.55,13.423,13.423,0,0,0-4.75,4.55A17.97,17.97,0,0,0,471.3,82.9ZM519.7,116V60.5h10.7l1.1,7.5h.2a40.723,40.723,0,0,1,8.1-6.3,19.476,19.476,0,0,1,10.1-2.6q8.9,0,13,5.8T567,81.2V116H553.9V82.9q0-6.9-2.05-9.7t-6.55-2.8a11.571,11.571,0,0,0-6.35,1.75,40.063,40.063,0,0,0-6.15,5.05V116Zm86.9,1.4a27.778,27.778,0,0,1-13.9-3.5,25.6,25.6,0,0,1-9.85-10,31.387,31.387,0,0,1-3.65-15.6,32.361,32.361,0,0,1,2.15-12.15,28.833,28.833,0,0,1,5.8-9.2,25.253,25.253,0,0,1,8.2-5.85,23.244,23.244,0,0,1,9.45-2,22.467,22.467,0,0,1,12.6,3.35,20.781,20.781,0,0,1,7.7,9.3,34.068,34.068,0,0,1,2.6,13.75q0,1.9-.15,3.55a16.283,16.283,0,0,1-.45,2.75H592a18.52,18.52,0,0,0,2.7,8.3,15.221,15.221,0,0,0,5.65,5.25,16.564,16.564,0,0,0,7.95,1.85,20.436,20.436,0,0,0,6.6-1.05,30.783,30.783,0,0,0,6.2-2.95l4.5,8.2a38.576,38.576,0,0,1-8.8,4.3A30.9,30.9,0,0,1,606.6,117.4ZM591.8,82.9h24.7q0-6.3-2.9-9.95T605,69.3a12.007,12.007,0,0,0-5.9,1.55,13.423,13.423,0,0,0-4.75,4.55A17.97,17.97,0,0,0,591.8,82.9ZM641.5,116V54.8a26.621,26.621,0,0,1,1.85-10.2,15.024,15.024,0,0,1,5.9-7.1q4.05-2.6,10.65-2.6a27.567,27.567,0,0,1,5.7.55,32.751,32.751,0,0,1,4.5,1.25l-2.5,9.9a14.517,14.517,0,0,0-6-1.3,6.413,6.413,0,0,0-5.25,2.25q-1.85,2.25-1.85,7.05V116ZM634,70.9V61.1l8.2-.6h23.2V70.9ZM675.1,116V60.5h13.1V116Zm6.6-65.2a7.848,7.848,0,0,1-5.65-2.05,7.18,7.18,0,0,1-2.15-5.45,7.056,7.056,0,0,1,2.15-5.35,7.848,7.848,0,0,1,5.65-2.05,8.07,8.07,0,0,1,5.65,2.05,6.9,6.9,0,0,1,2.25,5.35,7.016,7.016,0,0,1-2.25,5.45A8.07,8.07,0,0,1,681.7,50.8Zm42.5,66.6q-6.4,0-10.25-2.55a14.518,14.518,0,0,1-5.6-7.1A29.283,29.283,0,0,1,706.6,97.2V70.9h-7.9V61.1l8.7-.6,1.4-15.2h10.9V60.5h14.1V70.9H719.7V97.3q0,4.8,1.95,7.25T727.6,107a11.812,11.812,0,0,0,2.95-.4,20.5,20.5,0,0,0,2.75-.9l2.2,9.6q-2.2.7-5.05,1.4A26.187,26.187,0,0,1,724.2,117.4Zm35.2,0a30.683,30.683,0,0,1-11.3-2.2,35.247,35.247,0,0,1-9.7-5.6l6-8.4a37.326,37.326,0,0,0,7.4,4.6,18.7,18.7,0,0,0,7.9,1.7q4.5,0,6.7-1.9a6.071,6.071,0,0,0,2.2-4.8,4.936,4.936,0,0,0-1.75-3.85,16.992,16.992,0,0,0-4.5-2.75q-2.75-1.2-5.65-2.3a53.093,53.093,0,0,1-7.1-3.4,18.628,18.628,0,0,1-5.8-5.1,12.565,12.565,0,0,1-2.3-7.7,15.282,15.282,0,0,1,2.45-8.55,16.569,16.569,0,0,1,7-5.9A24.943,24.943,0,0,1,761.7,59.1a26.2,26.2,0,0,1,10.45,2,33.168,33.168,0,0,1,7.95,4.7l-6,8a33.538,33.538,0,0,0-5.9-3.45A14.954,14.954,0,0,0,762,69q-4.2,0-6.2,1.75a5.548,5.548,0,0,0-2,4.35,4.631,4.631,0,0,0,1.55,3.6,13.93,13.93,0,0,0,4.15,2.45q2.6,1.05,5.6,2.15,2.9,1.1,5.7,2.4a23.513,23.513,0,0,1,5.1,3.2,14.044,14.044,0,0,1,3.65,4.6,14.649,14.649,0,0,1,1.35,6.6,16.271,16.271,0,0,1-2.45,8.75,16.781,16.781,0,0,1-7.25,6.25A27.181,27.181,0,0,1,759.4,117.4ZM38.8,227.4a33.461,33.461,0,0,1-13-2.5,30.518,30.518,0,0,1-10.6-7.4,34.122,34.122,0,0,1-7.15-12A47.762,47.762,0,0,1,5.5,189.3a46.124,46.124,0,0,1,2.65-16.2,36.019,36.019,0,0,1,7.3-12.1,31.209,31.209,0,0,1,10.8-7.6,33.419,33.419,0,0,1,13.15-2.6,26.17,26.17,0,0,1,12.4,2.85,33.873,33.873,0,0,1,8.9,6.55l-7,8.4a27.731,27.731,0,0,0-6.3-4.6,16.419,16.419,0,0,0-7.8-1.8A18.2,18.2,0,0,0,29,165.45a21.144,21.144,0,0,0-7.3,9.2,35.443,35.443,0,0,0-2.6,14.25,37.749,37.749,0,0,0,2.5,14.45,20.859,20.859,0,0,0,7.05,9.3A17.845,17.845,0,0,0,39.3,215.9a18.263,18.263,0,0,0,8.8-2.1,26.317,26.317,0,0,0,7-5.5l7,8.3a30.749,30.749,0,0,1-10.3,8.05A29.969,29.969,0,0,1,38.8,227.4Zm47.2,0a12.7,12.7,0,0,1-7.4-1.95,10.619,10.619,0,0,1-4-5.5,25.768,25.768,0,0,1-1.2-8.25V146.3H86.5v66a4.859,4.859,0,0,0,.9,3.35,2.62,2.62,0,0,0,1.9.95,6.442,6.442,0,0,0,.8-.05l1.2-.15,1.6,9.8a16.2,16.2,0,0,1-2.85.85A19.891,19.891,0,0,1,86,227.4Zm34.5,0q-9,0-13.1-5.8t-4.1-16.3V170.5h13.1v33.2q0,6.7,2.05,9.55T125,216.1a11.576,11.576,0,0,0,6.4-1.8,25.082,25.082,0,0,0,5.9-5.8v-38h13.1V226H139.6l-1-8.2h-.3a35.435,35.435,0,0,1-7.9,6.95A18.161,18.161,0,0,1,120.5,227.4Zm73.3,0a17.606,17.606,0,0,1-7.65-1.9,28.345,28.345,0,0,1-7.45-5.3h-.4l-1.1,5.8H166.9V146.3H180v20.6l-.4,9.1a31.224,31.224,0,0,1,7.6-5,20.725,20.725,0,0,1,20.2,1.6,21.967,21.967,0,0,1,7.5,9.85,39.011,39.011,0,0,1,2.6,14.85,35.779,35.779,0,0,1-3.4,16.25,25.9,25.9,0,0,1-8.8,10.3A20.572,20.572,0,0,1,193.8,227.4ZM191,216.5a11.013,11.013,0,0,0,6.65-2.15A14.186,14.186,0,0,0,202.3,208a27.83,27.83,0,0,0,1.7-10.4,31.907,31.907,0,0,0-1.25-9.55A12.287,12.287,0,0,0,198.9,182a10.652,10.652,0,0,0-6.9-2.1,12.388,12.388,0,0,0-5.9,1.55,27.962,27.962,0,0,0-6.1,4.65v25.8a16.163,16.163,0,0,0,5.75,3.6A16.6,16.6,0,0,0,191,216.5Zm75.6,10.9a16.846,16.846,0,0,1-8.55-2.1,15.357,15.357,0,0,1-5.75-5.75,16.642,16.642,0,0,1-2.1-8.45,15.406,15.406,0,0,1,7.8-13.85q7.8-4.85,24.8-6.75a16.507,16.507,0,0,0-1.05-5.45,8.142,8.142,0,0,0-3.1-3.9,10.335,10.335,0,0,0-5.85-1.45,21.143,21.143,0,0,0-8.1,1.6,51.176,51.176,0,0,0-7.6,3.9l-4.7-8.8a65.729,65.729,0,0,1,6.65-3.55,44.466,44.466,0,0,1,7.6-2.7,33.538,33.538,0,0,1,8.45-1.05,21.982,21.982,0,0,1,11.6,2.8,17.172,17.172,0,0,1,6.9,8.15,33.011,33.011,0,0,1,2.3,13.05V226H285.2l-1-6.1h-.4a42.7,42.7,0,0,1-8,5.3A19.914,19.914,0,0,1,266.6,227.4Zm4.2-10.4a12.67,12.67,0,0,0,6.15-1.55,29.1,29.1,0,0,0,5.85-4.35V198.7a55.287,55.287,0,0,0-11.9,2.5,14.271,14.271,0,0,0-6.25,3.85,7.748,7.748,0,0,0-1.85,5.05q0,3.7,2.25,5.3A9.688,9.688,0,0,0,270.8,217Zm63.8,10.4a27.061,27.061,0,0,1-13.65-3.45,24.808,24.808,0,0,1-9.6-10,32.4,32.4,0,0,1-3.55-15.65q0-9.3,3.9-15.8a26.679,26.679,0,0,1,10.25-9.95,28.347,28.347,0,0,1,13.75-3.45,22.211,22.211,0,0,1,9.2,1.8,26.83,26.83,0,0,1,7,4.5l-6.3,8.4a18.53,18.53,0,0,0-4.4-2.9,11.462,11.462,0,0,0-4.8-1,14.05,14.05,0,0,0-7.85,2.25,14.739,14.739,0,0,0-5.35,6.4,23.234,23.234,0,0,0-1.9,9.75,22.973,22.973,0,0,0,1.9,9.65,15.149,15.149,0,0,0,5.2,6.4,13,13,0,0,0,7.5,2.25,14.511,14.511,0,0,0,6.2-1.35,24.173,24.173,0,0,0,5.3-3.35l5.3,8.7a26.825,26.825,0,0,1-8.65,5.1A27.9,27.9,0,0,1,334.6,227.4Zm47,0q-6.4,0-10.25-2.55a14.518,14.518,0,0,1-5.6-7.1A29.284,29.284,0,0,1,364,207.2V180.9h-7.9v-9.8l8.7-.6,1.4-15.2h10.9v15.2h14.1v10.4H377.1v26.4q0,4.8,1.95,7.25T385,217a11.812,11.812,0,0,0,2.95-.4,20.5,20.5,0,0,0,2.75-.9l2.2,9.6q-2.2.7-5.05,1.4A26.188,26.188,0,0,1,381.6,227.4Zm21.3-1.4V170.5H416V226Zm6.6-65.2a7.809,7.809,0,0,1-5.7-2.05,7.27,7.27,0,0,1-2.1-5.45,7.143,7.143,0,0,1,2.1-5.35,7.809,7.809,0,0,1,5.7-2.05,7.89,7.89,0,0,1,5.6,2.05,6.975,6.975,0,0,1,2.2,5.35,7.1,7.1,0,0,1-2.2,5.45A7.89,7.89,0,0,1,409.5,160.8ZM444.8,226l-19.2-55.5h13.3l8.7,28.8q1.2,4,2.35,8.25t2.35,8.35h.5q1.2-4.1,2.35-8.35t2.25-8.25l8.8-28.8h12.7L460.1,226Zm43.7,0V170.5h13.1V226Zm6.6-65.2a7.809,7.809,0,0,1-5.7-2.05,7.27,7.27,0,0,1-2.1-5.45,7.143,7.143,0,0,1,2.1-5.35,7.809,7.809,0,0,1,5.7-2.05,7.89,7.89,0,0,1,5.6,2.05,6.975,6.975,0,0,1,2.2,5.35,7.1,7.1,0,0,1-2.2,5.45A7.89,7.89,0,0,1,495.1,160.8Zm42.5,66.6q-6.4,0-10.25-2.55a14.518,14.518,0,0,1-5.6-7.1A29.283,29.283,0,0,1,520,207.2V180.9h-7.9v-9.8l8.7-.6,1.4-15.2h10.9v15.2h14.1v10.4H533.1v26.4q0,4.8,1.95,7.25T541,217a11.813,11.813,0,0,0,2.95-.4,20.5,20.5,0,0,0,2.75-.9l2.2,9.6q-2.2.7-5.05,1.4A26.188,26.188,0,0,1,537.6,227.4Zm21.3-1.4V170.5H572V226Zm6.6-65.2a7.809,7.809,0,0,1-5.7-2.05,7.27,7.27,0,0,1-2.1-5.45,7.143,7.143,0,0,1,2.1-5.35,7.809,7.809,0,0,1,5.7-2.05,7.89,7.89,0,0,1,5.6,2.05,6.975,6.975,0,0,1,2.2,5.35,7.1,7.1,0,0,1-2.2,5.45A7.89,7.89,0,0,1,565.5,160.8Zm46.7,66.6a27.778,27.778,0,0,1-13.9-3.5,25.6,25.6,0,0,1-9.85-10,31.387,31.387,0,0,1-3.65-15.6,32.361,32.361,0,0,1,2.15-12.15,28.833,28.833,0,0,1,5.8-9.2,25.253,25.253,0,0,1,8.2-5.85,23.244,23.244,0,0,1,9.45-2,22.467,22.467,0,0,1,12.6,3.35,20.781,20.781,0,0,1,7.7,9.3,34.068,34.068,0,0,1,2.6,13.75q0,1.9-.15,3.55a16.283,16.283,0,0,1-.45,2.75H597.6a18.52,18.52,0,0,0,2.7,8.3,15.221,15.221,0,0,0,5.65,5.25,16.564,16.564,0,0,0,7.95,1.85,20.436,20.436,0,0,0,6.6-1.05,30.782,30.782,0,0,0,6.2-2.95l4.5,8.2a38.575,38.575,0,0,1-8.8,4.3A30.9,30.9,0,0,1,612.2,227.4Zm-14.8-34.5h24.7q0-6.3-2.9-9.95t-8.6-3.65a12.007,12.007,0,0,0-5.9,1.55,13.423,13.423,0,0,0-4.75,4.55A17.97,17.97,0,0,0,597.4,192.9Zm63.9,34.5a30.683,30.683,0,0,1-11.3-2.2,35.247,35.247,0,0,1-9.7-5.6l6-8.4a37.326,37.326,0,0,0,7.4,4.6,18.7,18.7,0,0,0,7.9,1.7q4.5,0,6.7-1.9a6.071,6.071,0,0,0,2.2-4.8,4.936,4.936,0,0,0-1.75-3.85,16.992,16.992,0,0,0-4.5-2.75q-2.75-1.2-5.65-2.3a53.094,53.094,0,0,1-7.1-3.4,18.628,18.628,0,0,1-5.8-5.1,12.565,12.565,0,0,1-2.3-7.7,15.283,15.283,0,0,1,2.45-8.55,16.569,16.569,0,0,1,7-5.9,24.943,24.943,0,0,1,10.75-2.15,26.2,26.2,0,0,1,10.45,2,33.167,33.167,0,0,1,7.95,4.7l-6,8a33.538,33.538,0,0,0-5.9-3.45,14.954,14.954,0,0,0-6.2-1.35q-4.2,0-6.2,1.75a5.548,5.548,0,0,0-2,4.35,4.631,4.631,0,0,0,1.55,3.6,13.93,13.93,0,0,0,4.15,2.45q2.6,1.05,5.6,2.15,2.9,1.1,5.7,2.4a23.513,23.513,0,0,1,5.1,3.2,14.044,14.044,0,0,1,3.65,4.6,14.649,14.649,0,0,1,1.35,6.6,16.271,16.271,0,0,1-2.45,8.75,16.781,16.781,0,0,1-7.25,6.25A27.181,27.181,0,0,1,661.3,227.4Z" transform="translate(227.4 -2.1) rotate(90)" fill="#e5e5e5"/>
</svg>
