<svg xmlns="http://www.w3.org/2000/svg" width="191.5" height="418.3" viewBox="0 0 191.5 418.3">
  <path id="パス_249" data-name="パス 249" d="M9.4,116V42.1H33.1a48.055,48.055,0,0,1,13.55,1.75A19.063,19.063,0,0,1,56,49.55q3.4,3.95,3.4,10.75a19.334,19.334,0,0,1-1.2,6.75,16.666,16.666,0,0,1-3.5,5.7,13.41,13.41,0,0,1-5.5,3.55v.5a18.62,18.62,0,0,1,10.1,5.65q4,4.35,4,11.85,0,7.4-3.7,12.2a21.933,21.933,0,0,1-10.1,7.15A42.187,42.187,0,0,1,34.9,116ZM22.6,72.6h9.3q7.7,0,11.15-2.8a9.269,9.269,0,0,0,3.45-7.6q0-5.3-3.6-7.55T32.1,52.4H22.6Zm0,33.1h11q8.1,0,12.45-2.95T50.4,93.6q0-5.9-4.3-8.5T33.6,82.5h-11Zm69.6,11.7q-9,0-13.1-5.8T75,95.3V60.5H88.1V93.7q0,6.7,2.05,9.55t6.55,2.85a11.576,11.576,0,0,0,6.4-1.8,25.082,25.082,0,0,0,5.9-5.8v-38h13.1V116H111.3l-1-8.2H110a35.435,35.435,0,0,1-7.9,6.95A18.161,18.161,0,0,1,92.2,117.4Zm61.9,0a30.683,30.683,0,0,1-11.3-2.2,35.247,35.247,0,0,1-9.7-5.6l6-8.4a37.326,37.326,0,0,0,7.4,4.6,18.7,18.7,0,0,0,7.9,1.7q4.5,0,6.7-1.9a6.071,6.071,0,0,0,2.2-4.8,4.936,4.936,0,0,0-1.75-3.85,16.992,16.992,0,0,0-4.5-2.75q-2.75-1.2-5.65-2.3a53.091,53.091,0,0,1-7.1-3.4,18.628,18.628,0,0,1-5.8-5.1,12.565,12.565,0,0,1-2.3-7.7,15.282,15.282,0,0,1,2.45-8.55,16.569,16.569,0,0,1,7-5.9A24.943,24.943,0,0,1,156.4,59.1a26.2,26.2,0,0,1,10.45,2,33.168,33.168,0,0,1,7.95,4.7l-6,8a33.537,33.537,0,0,0-5.9-3.45A14.954,14.954,0,0,0,156.7,69q-4.2,0-6.2,1.75a5.548,5.548,0,0,0-2,4.35,4.631,4.631,0,0,0,1.55,3.6,13.931,13.931,0,0,0,4.15,2.45q2.6,1.05,5.6,2.15,2.9,1.1,5.7,2.4a23.513,23.513,0,0,1,5.1,3.2,14.043,14.043,0,0,1,3.65,4.6,14.648,14.648,0,0,1,1.35,6.6,16.271,16.271,0,0,1-2.45,8.75,16.781,16.781,0,0,1-7.25,6.25A27.181,27.181,0,0,1,154.1,117.4Zm33.2-1.4V60.5h13.1V116Zm6.6-65.2a7.809,7.809,0,0,1-5.7-2.05,7.27,7.27,0,0,1-2.1-5.45,7.143,7.143,0,0,1,2.1-5.35,7.809,7.809,0,0,1,5.7-2.05,7.89,7.89,0,0,1,5.6,2.05,6.975,6.975,0,0,1,2.2,5.35,7.1,7.1,0,0,1-2.2,5.45A7.89,7.89,0,0,1,193.9,50.8Zm23,65.2V60.5h10.7l1.1,7.5h.2a40.721,40.721,0,0,1,8.1-6.3,19.476,19.476,0,0,1,10.1-2.6q8.9,0,13,5.8t4.1,16.3V116H251.1V82.9q0-6.9-2.05-9.7t-6.55-2.8a11.571,11.571,0,0,0-6.35,1.75A40.063,40.063,0,0,0,230,77.2V116Zm86.9,1.4a27.778,27.778,0,0,1-13.9-3.5,25.6,25.6,0,0,1-9.85-10,31.387,31.387,0,0,1-3.65-15.6,32.361,32.361,0,0,1,2.15-12.15,28.832,28.832,0,0,1,5.8-9.2,25.253,25.253,0,0,1,8.2-5.85,23.244,23.244,0,0,1,9.45-2,22.467,22.467,0,0,1,12.6,3.35,20.782,20.782,0,0,1,7.7,9.3,34.068,34.068,0,0,1,2.6,13.75q0,1.9-.15,3.55a16.283,16.283,0,0,1-.45,2.75H289.2a18.52,18.52,0,0,0,2.7,8.3,15.22,15.22,0,0,0,5.65,5.25,16.564,16.564,0,0,0,7.95,1.85,20.436,20.436,0,0,0,6.6-1.05,30.784,30.784,0,0,0,6.2-2.95l4.5,8.2a38.575,38.575,0,0,1-8.8,4.3A30.9,30.9,0,0,1,303.8,117.4ZM289,82.9h24.7q0-6.3-2.9-9.95t-8.6-3.65a12.007,12.007,0,0,0-5.9,1.55,13.423,13.423,0,0,0-4.75,4.55A17.97,17.97,0,0,0,289,82.9Zm63.9,34.5a30.683,30.683,0,0,1-11.3-2.2,35.247,35.247,0,0,1-9.7-5.6l6-8.4a37.326,37.326,0,0,0,7.4,4.6,18.7,18.7,0,0,0,7.9,1.7q4.5,0,6.7-1.9a6.071,6.071,0,0,0,2.2-4.8,4.936,4.936,0,0,0-1.75-3.85,16.991,16.991,0,0,0-4.5-2.75q-2.75-1.2-5.65-2.3a53.093,53.093,0,0,1-7.1-3.4,18.628,18.628,0,0,1-5.8-5.1,12.565,12.565,0,0,1-2.3-7.7,15.282,15.282,0,0,1,2.45-8.55,16.569,16.569,0,0,1,7-5.9A24.943,24.943,0,0,1,355.2,59.1a26.2,26.2,0,0,1,10.45,2,33.168,33.168,0,0,1,7.95,4.7l-6,8a33.537,33.537,0,0,0-5.9-3.45A14.954,14.954,0,0,0,355.5,69q-4.2,0-6.2,1.75a5.548,5.548,0,0,0-2,4.35,4.631,4.631,0,0,0,1.55,3.6A13.93,13.93,0,0,0,353,81.15q2.6,1.05,5.6,2.15,2.9,1.1,5.7,2.4a23.512,23.512,0,0,1,5.1,3.2,14.043,14.043,0,0,1,3.65,4.6,14.649,14.649,0,0,1,1.35,6.6,16.271,16.271,0,0,1-2.45,8.75,16.782,16.782,0,0,1-7.25,6.25A27.181,27.181,0,0,1,352.9,117.4Zm48.7,0a30.683,30.683,0,0,1-11.3-2.2,35.247,35.247,0,0,1-9.7-5.6l6-8.4a37.326,37.326,0,0,0,7.4,4.6,18.7,18.7,0,0,0,7.9,1.7q4.5,0,6.7-1.9a6.071,6.071,0,0,0,2.2-4.8,4.936,4.936,0,0,0-1.75-3.85,16.991,16.991,0,0,0-4.5-2.75q-2.75-1.2-5.65-2.3a53.093,53.093,0,0,1-7.1-3.4,18.628,18.628,0,0,1-5.8-5.1,12.565,12.565,0,0,1-2.3-7.7,15.282,15.282,0,0,1,2.45-8.55,16.569,16.569,0,0,1,7-5.9A24.943,24.943,0,0,1,403.9,59.1a26.2,26.2,0,0,1,10.45,2,33.168,33.168,0,0,1,7.95,4.7l-6,8a33.537,33.537,0,0,0-5.9-3.45A14.954,14.954,0,0,0,404.2,69q-4.2,0-6.2,1.75a5.548,5.548,0,0,0-2,4.35,4.631,4.631,0,0,0,1.55,3.6,13.93,13.93,0,0,0,4.15,2.45q2.6,1.05,5.6,2.15,2.9,1.1,5.7,2.4a23.512,23.512,0,0,1,5.1,3.2,14.043,14.043,0,0,1,3.65,4.6,14.649,14.649,0,0,1,1.35,6.6,16.271,16.271,0,0,1-2.45,8.75,16.782,16.782,0,0,1-7.25,6.25A27.181,27.181,0,0,1,401.6,117.4Zm-374,110a21.138,21.138,0,0,1-12.05-3.45,22.094,22.094,0,0,1-7.95-10A39.674,39.674,0,0,1,4.8,198.3a33.682,33.682,0,0,1,3.35-15.6,25.9,25.9,0,0,1,8.75-10.05,20.572,20.572,0,0,1,11.5-3.55,17.738,17.738,0,0,1,8,1.65,30.945,30.945,0,0,1,6.5,4.45l-.5-8.9v-20H55.5V226H44.8l-1-6h-.4a29.787,29.787,0,0,1-7.15,5.25A18.177,18.177,0,0,1,27.6,227.4Zm3.3-10.9a12.86,12.86,0,0,0,6-1.45,18.1,18.1,0,0,0,5.5-4.75V184.6a17.3,17.3,0,0,0-5.6-3.65,16.116,16.116,0,0,0-5.7-1.05,10.36,10.36,0,0,0-6.3,2.15,15.16,15.16,0,0,0-4.7,6.2,24.187,24.187,0,0,0-1.8,9.85,29.6,29.6,0,0,0,1.5,10.1,12.968,12.968,0,0,0,4.35,6.2A11.066,11.066,0,0,0,30.9,216.5Zm64.8,10.9a27.778,27.778,0,0,1-13.9-3.5,25.6,25.6,0,0,1-9.85-10,31.387,31.387,0,0,1-3.65-15.6,32.361,32.361,0,0,1,2.15-12.15,28.831,28.831,0,0,1,5.8-9.2,25.253,25.253,0,0,1,8.2-5.85,23.244,23.244,0,0,1,9.45-2,22.467,22.467,0,0,1,12.6,3.35,20.781,20.781,0,0,1,7.7,9.3,34.068,34.068,0,0,1,2.6,13.75q0,1.9-.15,3.55a16.28,16.28,0,0,1-.45,2.75H81.1a18.52,18.52,0,0,0,2.7,8.3,15.221,15.221,0,0,0,5.65,5.25,16.564,16.564,0,0,0,7.95,1.85,20.436,20.436,0,0,0,6.6-1.05,30.783,30.783,0,0,0,6.2-2.95l4.5,8.2a38.575,38.575,0,0,1-8.8,4.3A30.9,30.9,0,0,1,95.7,227.4ZM80.9,192.9h24.7q0-6.3-2.9-9.95t-8.6-3.65a12.007,12.007,0,0,0-5.9,1.55,13.423,13.423,0,0,0-4.75,4.55A17.97,17.97,0,0,0,80.9,192.9Zm66.3,34.5q-6.4,0-10.25-2.55a14.518,14.518,0,0,1-5.6-7.1,29.283,29.283,0,0,1-1.75-10.55V180.9h-7.9v-9.8l8.7-.6,1.4-15.2h10.9v15.2h14.1v10.4H142.7v26.4q0,4.8,1.95,7.25T150.6,217a11.812,11.812,0,0,0,2.95-.4,20.5,20.5,0,0,0,2.75-.9l2.2,9.6q-2.2.7-5.05,1.4A26.188,26.188,0,0,1,147.2,227.4Zm31.8,0a16.846,16.846,0,0,1-8.55-2.1,15.357,15.357,0,0,1-5.75-5.75,16.642,16.642,0,0,1-2.1-8.45,15.406,15.406,0,0,1,7.8-13.85q7.8-4.85,24.8-6.75a16.506,16.506,0,0,0-1.05-5.45,8.142,8.142,0,0,0-3.1-3.9,10.335,10.335,0,0,0-5.85-1.45,21.143,21.143,0,0,0-8.1,1.6,51.177,51.177,0,0,0-7.6,3.9l-4.7-8.8a65.731,65.731,0,0,1,6.65-3.55,44.465,44.465,0,0,1,7.6-2.7,33.538,33.538,0,0,1,8.45-1.05,21.982,21.982,0,0,1,11.6,2.8,17.172,17.172,0,0,1,6.9,8.15,33.012,33.012,0,0,1,2.3,13.05V226H197.6l-1-6.1h-.4a42.7,42.7,0,0,1-8,5.3A19.914,19.914,0,0,1,179,227.4Zm4.2-10.4a12.671,12.671,0,0,0,6.15-1.55,29.1,29.1,0,0,0,5.85-4.35V198.7a55.287,55.287,0,0,0-11.9,2.5,14.271,14.271,0,0,0-6.25,3.85,7.748,7.748,0,0,0-1.85,5.05q0,3.7,2.25,5.3A9.688,9.688,0,0,0,183.2,217Zm40.7,9V170.5H237V226Zm6.6-65.2a7.809,7.809,0,0,1-5.7-2.05,7.27,7.27,0,0,1-2.1-5.45,7.143,7.143,0,0,1,2.1-5.35,7.809,7.809,0,0,1,5.7-2.05,7.89,7.89,0,0,1,5.6,2.05,6.975,6.975,0,0,1,2.2,5.35,7.1,7.1,0,0,1-2.2,5.45A7.89,7.89,0,0,1,230.5,160.8Zm35.6,66.6a12.7,12.7,0,0,1-7.4-1.95,10.619,10.619,0,0,1-4-5.5,25.768,25.768,0,0,1-1.2-8.25V146.3h13.1v66a4.859,4.859,0,0,0,.9,3.35,2.62,2.62,0,0,0,1.9.95,6.443,6.443,0,0,0,.8-.05l1.2-.15,1.6,9.8a16.2,16.2,0,0,1-2.85.85A19.89,19.89,0,0,1,266.1,227.4Zm33.5,0a30.683,30.683,0,0,1-11.3-2.2,35.247,35.247,0,0,1-9.7-5.6l6-8.4a37.326,37.326,0,0,0,7.4,4.6,18.7,18.7,0,0,0,7.9,1.7q4.5,0,6.7-1.9a6.071,6.071,0,0,0,2.2-4.8,4.936,4.936,0,0,0-1.75-3.85,16.991,16.991,0,0,0-4.5-2.75q-2.75-1.2-5.65-2.3a53.094,53.094,0,0,1-7.1-3.4,18.628,18.628,0,0,1-5.8-5.1,12.565,12.565,0,0,1-2.3-7.7,15.282,15.282,0,0,1,2.45-8.55,16.569,16.569,0,0,1,7-5.9,24.943,24.943,0,0,1,10.75-2.15,26.2,26.2,0,0,1,10.45,2,33.167,33.167,0,0,1,7.95,4.7l-6,8a33.536,33.536,0,0,0-5.9-3.45,14.954,14.954,0,0,0-6.2-1.35q-4.2,0-6.2,1.75a5.548,5.548,0,0,0-2,4.35,4.631,4.631,0,0,0,1.55,3.6,13.93,13.93,0,0,0,4.15,2.45q2.6,1.05,5.6,2.15,2.9,1.1,5.7,2.4a23.513,23.513,0,0,1,5.1,3.2,14.043,14.043,0,0,1,3.65,4.6,14.649,14.649,0,0,1,1.35,6.6,16.271,16.271,0,0,1-2.45,8.75,16.782,16.782,0,0,1-7.25,6.25A27.181,27.181,0,0,1,299.6,227.4Z" transform="translate(227.4 -4.8) rotate(90)" fill="#e5e5e5"/>
</svg>
