<svg xmlns="http://www.w3.org/2000/svg" width="98.4" height="397.4" viewBox="0 0 98.4 397.4">
  <path id="パス_246" data-name="パス 246" d="M9.4,116V42.1H24.3l13,36.1q1.2,3.4,2.4,7.1T42,92.6h.5q1.2-3.6,2.35-7.3t2.25-7.1L59.9,42.1H74.8V116H62.7V82.4q0-3.5.3-7.65t.7-8.35q.4-4.2.7-7.6H64L58,76,45.9,109.1H38L25.9,76,20,58.8h-.4q.4,3.4.75,7.6T21,74.75q.3,4.15.3,7.65V116Zm106.8,1.4a27.778,27.778,0,0,1-13.9-3.5,25.6,25.6,0,0,1-9.85-10A31.387,31.387,0,0,1,88.8,88.3a32.361,32.361,0,0,1,2.15-12.15,28.832,28.832,0,0,1,5.8-9.2,25.253,25.253,0,0,1,8.2-5.85,23.244,23.244,0,0,1,9.45-2A22.467,22.467,0,0,1,127,62.45a20.781,20.781,0,0,1,7.7,9.3,34.068,34.068,0,0,1,2.6,13.75q0,1.9-.15,3.55a16.28,16.28,0,0,1-.45,2.75H101.6a18.52,18.52,0,0,0,2.7,8.3,15.221,15.221,0,0,0,5.65,5.25,16.564,16.564,0,0,0,7.95,1.85,20.436,20.436,0,0,0,6.6-1.05,30.785,30.785,0,0,0,6.2-2.95l4.5,8.2a38.575,38.575,0,0,1-8.8,4.3A30.9,30.9,0,0,1,116.2,117.4ZM101.4,82.9h24.7q0-6.3-2.9-9.95t-8.6-3.65a12.007,12.007,0,0,0-5.9,1.55,13.423,13.423,0,0,0-4.75,4.55A17.97,17.97,0,0,0,101.4,82.9Zm63.9,34.5a30.683,30.683,0,0,1-11.3-2.2,35.247,35.247,0,0,1-9.7-5.6l6-8.4a37.326,37.326,0,0,0,7.4,4.6,18.7,18.7,0,0,0,7.9,1.7q4.5,0,6.7-1.9a6.071,6.071,0,0,0,2.2-4.8,4.936,4.936,0,0,0-1.75-3.85,16.992,16.992,0,0,0-4.5-2.75q-2.75-1.2-5.65-2.3a53.091,53.091,0,0,1-7.1-3.4,18.628,18.628,0,0,1-5.8-5.1,12.565,12.565,0,0,1-2.3-7.7,15.282,15.282,0,0,1,2.45-8.55,16.569,16.569,0,0,1,7-5.9A24.943,24.943,0,0,1,167.6,59.1a26.2,26.2,0,0,1,10.45,2A33.168,33.168,0,0,1,186,65.8l-6,8a33.537,33.537,0,0,0-5.9-3.45A14.954,14.954,0,0,0,167.9,69q-4.2,0-6.2,1.75a5.548,5.548,0,0,0-2,4.35,4.631,4.631,0,0,0,1.55,3.6,13.931,13.931,0,0,0,4.15,2.45Q168,82.2,171,83.3q2.9,1.1,5.7,2.4a23.513,23.513,0,0,1,5.1,3.2,14.043,14.043,0,0,1,3.65,4.6,14.648,14.648,0,0,1,1.35,6.6,16.271,16.271,0,0,1-2.45,8.75,16.782,16.782,0,0,1-7.25,6.25A27.181,27.181,0,0,1,165.3,117.4Zm48.7,0a30.683,30.683,0,0,1-11.3-2.2,35.247,35.247,0,0,1-9.7-5.6l6-8.4a37.326,37.326,0,0,0,7.4,4.6,18.7,18.7,0,0,0,7.9,1.7q4.5,0,6.7-1.9a6.071,6.071,0,0,0,2.2-4.8,4.936,4.936,0,0,0-1.75-3.85,16.992,16.992,0,0,0-4.5-2.75q-2.75-1.2-5.65-2.3a53.091,53.091,0,0,1-7.1-3.4,18.628,18.628,0,0,1-5.8-5.1,12.565,12.565,0,0,1-2.3-7.7,15.282,15.282,0,0,1,2.45-8.55,16.569,16.569,0,0,1,7-5.9A24.943,24.943,0,0,1,216.3,59.1a26.2,26.2,0,0,1,10.45,2,33.168,33.168,0,0,1,7.95,4.7l-6,8a33.537,33.537,0,0,0-5.9-3.45A14.954,14.954,0,0,0,216.6,69q-4.2,0-6.2,1.75a5.548,5.548,0,0,0-2,4.35,4.631,4.631,0,0,0,1.55,3.6,13.931,13.931,0,0,0,4.15,2.45q2.6,1.05,5.6,2.15,2.9,1.1,5.7,2.4a23.513,23.513,0,0,1,5.1,3.2,14.043,14.043,0,0,1,3.65,4.6,14.648,14.648,0,0,1,1.35,6.6,16.271,16.271,0,0,1-2.45,8.75,16.781,16.781,0,0,1-7.25,6.25A27.181,27.181,0,0,1,214,117.4Zm46.6,0a16.846,16.846,0,0,1-8.55-2.1,15.357,15.357,0,0,1-5.75-5.75,16.642,16.642,0,0,1-2.1-8.45A15.406,15.406,0,0,1,252,87.25q7.8-4.85,24.8-6.75a16.507,16.507,0,0,0-1.05-5.45,8.142,8.142,0,0,0-3.1-3.9,10.335,10.335,0,0,0-5.85-1.45,21.143,21.143,0,0,0-8.1,1.6,51.177,51.177,0,0,0-7.6,3.9l-4.7-8.8a65.731,65.731,0,0,1,6.65-3.55,44.467,44.467,0,0,1,7.6-2.7,33.538,33.538,0,0,1,8.45-1.05,21.982,21.982,0,0,1,11.6,2.8,17.172,17.172,0,0,1,6.9,8.15,33.011,33.011,0,0,1,2.3,13.05V116H279.2l-1-6.1h-.4a42.7,42.7,0,0,1-8,5.3A19.914,19.914,0,0,1,260.6,117.4Zm4.2-10.4a12.671,12.671,0,0,0,6.15-1.55,29.1,29.1,0,0,0,5.85-4.35V88.7a55.287,55.287,0,0,0-11.9,2.5,14.271,14.271,0,0,0-6.25,3.85,7.748,7.748,0,0,0-1.85,5.05q0,3.7,2.25,5.3A9.688,9.688,0,0,0,264.8,107Zm60,33.5a40.609,40.609,0,0,1-11.85-1.6,18.368,18.368,0,0,1-8.25-4.8,11.243,11.243,0,0,1-3-8,11.524,11.524,0,0,1,2.05-6.55,17.1,17.1,0,0,1,5.95-5.25v-.5a12.374,12.374,0,0,1-3.55-3.65,10.235,10.235,0,0,1-1.45-5.65,10.453,10.453,0,0,1,1.85-5.95,15.014,15.014,0,0,1,4.35-4.35v-.4a21.128,21.128,0,0,1-5.2-6,16.468,16.468,0,0,1-2.3-8.7,18.743,18.743,0,0,1,3.1-10.9,19.6,19.6,0,0,1,8.1-6.8,25.3,25.3,0,0,1,10.7-2.3,24.627,24.627,0,0,1,4.6.4,22.672,22.672,0,0,1,3.7,1h19.9v9.7h-10a13.362,13.362,0,0,1,2.15,4,15.783,15.783,0,0,1,.85,5.3,18.4,18.4,0,0,1-2.8,10.35,17.363,17.363,0,0,1-7.65,6.4A26.237,26.237,0,0,1,325.3,98.4a20.246,20.246,0,0,1-3.55-.35A22.74,22.74,0,0,1,317.9,97a9.258,9.258,0,0,0-1.95,2.2,5.77,5.77,0,0,0-.75,3.1,4.135,4.135,0,0,0,1.95,3.55q1.95,1.35,7.05,1.35h9.9q9.9,0,15.1,3.25t5.2,10.45a15.424,15.424,0,0,1-3.6,9.95,24.092,24.092,0,0,1-10.3,7.05A43.283,43.283,0,0,1,324.8,140.5Zm.5-50.3a9.183,9.183,0,0,0,4.9-1.35,9.656,9.656,0,0,0,3.5-3.8,14.266,14.266,0,0,0,0-11.9,9.059,9.059,0,0,0-3.45-3.7,9.667,9.667,0,0,0-4.95-1.25,9.279,9.279,0,0,0-4.75,1.25,9.13,9.13,0,0,0-3.45,3.65,12.487,12.487,0,0,0-1.3,6,12.554,12.554,0,0,0,1.3,5.95,9.789,9.789,0,0,0,3.45,3.8A8.754,8.754,0,0,0,325.3,90.2Zm1.4,41.8a22.747,22.747,0,0,0,7.95-1.25,13.253,13.253,0,0,0,5.2-3.25,6.348,6.348,0,0,0,1.85-4.4q0-3.3-2.5-4.45a17.787,17.787,0,0,0-7.2-1.15h-7.6q-2.2,0-4.05-.15a21.336,21.336,0,0,1-3.45-.55,10.432,10.432,0,0,0-3.2,3.5,8.1,8.1,0,0,0-1,3.8q0,3.7,3.8,5.8T326.7,132Zm59-14.6a27.778,27.778,0,0,1-13.9-3.5,25.6,25.6,0,0,1-9.85-10,31.387,31.387,0,0,1-3.65-15.6,32.361,32.361,0,0,1,2.15-12.15,28.832,28.832,0,0,1,5.8-9.2,25.253,25.253,0,0,1,8.2-5.85,23.244,23.244,0,0,1,9.45-2,22.467,22.467,0,0,1,12.6,3.35,20.782,20.782,0,0,1,7.7,9.3,34.068,34.068,0,0,1,2.6,13.75q0,1.9-.15,3.55a16.283,16.283,0,0,1-.45,2.75H371.1a18.52,18.52,0,0,0,2.7,8.3,15.22,15.22,0,0,0,5.65,5.25,16.564,16.564,0,0,0,7.95,1.85,20.436,20.436,0,0,0,6.6-1.05,30.784,30.784,0,0,0,6.2-2.95l4.5,8.2a38.575,38.575,0,0,1-8.8,4.3A30.9,30.9,0,0,1,385.7,117.4ZM370.9,82.9h24.7q0-6.3-2.9-9.95t-8.6-3.65a12.007,12.007,0,0,0-5.9,1.55,13.423,13.423,0,0,0-4.75,4.55A17.97,17.97,0,0,0,370.9,82.9Z" transform="translate(140.5 -9.4) rotate(90)" fill="#e5e5e5"/>
</svg>
