<svg xmlns="http://www.w3.org/2000/svg" width="192.5" height="597.1" viewBox="0 0 192.5 597.1">
  <path id="パス_248" data-name="パス 248" d="M31,117.4A38.013,38.013,0,0,1,4.4,106.6L12,97.5a32.761,32.761,0,0,0,9.05,6.1,24.3,24.3,0,0,0,10.15,2.3q6.3,0,9.55-2.6A8.294,8.294,0,0,0,44,96.5a7.836,7.836,0,0,0-1.5-5,12.524,12.524,0,0,0-4.05-3.25Q35.9,86.9,32.6,85.5L22.5,81.2a34.909,34.909,0,0,1-7.05-4,20.506,20.506,0,0,1-5.7-6.35A17.819,17.819,0,0,1,7.5,61.7,18.564,18.564,0,0,1,10.7,51a22.167,22.167,0,0,1,8.85-7.45A28.993,28.993,0,0,1,32.4,40.8a32.188,32.188,0,0,1,12.5,2.5,30.749,30.749,0,0,1,10.3,6.9l-6.8,8.4a29.789,29.789,0,0,0-7.35-4.7,21.2,21.2,0,0,0-8.65-1.7,13.617,13.617,0,0,0-8.3,2.3A7.42,7.42,0,0,0,21,60.8a7.057,7.057,0,0,0,1.65,4.8,12.857,12.857,0,0,0,4.3,3.15Q29.6,70,32.7,71.3l9.9,4.1a31.827,31.827,0,0,1,7.75,4.45,19.065,19.065,0,0,1,5.25,6.4,21.708,21.708,0,0,1-1.25,20.15,22.3,22.3,0,0,1-9.1,8A31.332,31.332,0,0,1,31,117.4Zm55,0q-6.4,0-10.25-2.55a14.518,14.518,0,0,1-5.6-7.1A29.284,29.284,0,0,1,68.4,97.2V70.9H60.5V61.1l8.7-.6,1.4-15.2H81.5V60.5H95.6V70.9H81.5V97.3q0,4.8,1.95,7.25T89.4,107a11.812,11.812,0,0,0,2.95-.4,20.5,20.5,0,0,0,2.75-.9l2.2,9.6q-2.2.7-5.05,1.4A26.188,26.188,0,0,1,86,117.4Zm31.8,0a16.846,16.846,0,0,1-8.55-2.1,15.357,15.357,0,0,1-5.75-5.75,16.642,16.642,0,0,1-2.1-8.45,15.406,15.406,0,0,1,7.8-13.85Q117,82.4,134,80.5a16.507,16.507,0,0,0-1.05-5.45,8.142,8.142,0,0,0-3.1-3.9A10.335,10.335,0,0,0,124,69.7a21.143,21.143,0,0,0-8.1,1.6,51.178,51.178,0,0,0-7.6,3.9l-4.7-8.8a65.73,65.73,0,0,1,6.65-3.55,44.466,44.466,0,0,1,7.6-2.7,33.538,33.538,0,0,1,8.45-1.05,21.982,21.982,0,0,1,11.6,2.8,17.172,17.172,0,0,1,6.9,8.15,33.012,33.012,0,0,1,2.3,13.05V116H136.4l-1-6.1H135a42.7,42.7,0,0,1-8,5.3A19.914,19.914,0,0,1,117.8,117.4ZM122,107a12.671,12.671,0,0,0,6.15-1.55A29.1,29.1,0,0,0,134,101.1V88.7a55.287,55.287,0,0,0-11.9,2.5,14.271,14.271,0,0,0-6.25,3.85A7.748,7.748,0,0,0,114,100.1q0,3.7,2.25,5.3A9.688,9.688,0,0,0,122,107Zm42.9,9V55.7a24.516,24.516,0,0,1,2-10.15,15.325,15.325,0,0,1,6.25-7Q177.4,36,184.1,36a29.323,29.323,0,0,1,6.05.6A29.662,29.662,0,0,1,195,38l-2.5,9.8a14.574,14.574,0,0,0-3.15-1.05,18.165,18.165,0,0,0-3.75-.35,7.141,7.141,0,0,0-5.6,2.35q-2.1,2.35-2.1,7.05V116Zm34,0V54.8a26.621,26.621,0,0,1,1.85-10.2,14.938,14.938,0,0,1,5.95-7.1q4.1-2.6,10.6-2.6a27.568,27.568,0,0,1,5.7.55,32.751,32.751,0,0,1,4.5,1.25l-2.4,9.9a15.21,15.21,0,0,0-6.1-1.3,6.268,6.268,0,0,0-5.2,2.25Q212,49.8,212,54.6V116ZM157.4,70.9V61.1l8.2-.6h57.2V70.9ZM8.3,226V170.5H21.4V226Zm6.6-65.2a7.809,7.809,0,0,1-5.7-2.05,7.27,7.27,0,0,1-2.1-5.45,7.143,7.143,0,0,1,2.1-5.35,7.809,7.809,0,0,1,5.7-2.05,7.89,7.89,0,0,1,5.6,2.05,6.975,6.975,0,0,1,2.2,5.35,7.1,7.1,0,0,1-2.2,5.45A7.89,7.89,0,0,1,14.9,160.8Zm23,65.2V170.5H48.6l1.1,7.5h.2a40.722,40.722,0,0,1,8.1-6.3,19.476,19.476,0,0,1,10.1-2.6q8.9,0,13,5.8t4.1,16.3V226H72.1V192.9q0-6.9-2.05-9.7t-6.55-2.8a11.571,11.571,0,0,0-6.35,1.75A40.063,40.063,0,0,0,51,187.2V226Zm82.7,1.4q-6.4,0-10.25-2.55a14.518,14.518,0,0,1-5.6-7.1A29.284,29.284,0,0,1,103,207.2V180.9H95.1v-9.8l8.7-.6,1.4-15.2h10.9v15.2h14.1v10.4H116.1v26.4q0,4.8,1.95,7.25T124,217a11.812,11.812,0,0,0,2.95-.4,20.5,20.5,0,0,0,2.75-.9l2.2,9.6q-2.2.7-5.05,1.4A26.188,26.188,0,0,1,120.6,227.4Zm21.3-1.4V170.5h10.7l1.1,9.9h.2a24.486,24.486,0,0,1,7.2-8.35,14.808,14.808,0,0,1,8.6-2.95,18.471,18.471,0,0,1,3.65.3,10.784,10.784,0,0,1,2.65.9l-2.2,11.3q-1.5-.4-2.75-.65a15.84,15.84,0,0,0-3.05-.25,12.008,12.008,0,0,0-6.85,2.6q-3.65,2.6-6.15,8.9V226Zm63.4,1.4a25.759,25.759,0,0,1-22.7-13.45,31.326,31.326,0,0,1-3.7-15.65q0-9.3,3.7-15.8a26.035,26.035,0,0,1,32.65-11.45,25.24,25.24,0,0,1,8.45,5.7,27.128,27.128,0,0,1,5.85,9.15,33.334,33.334,0,0,1,2.15,12.4,31.326,31.326,0,0,1-3.7,15.65,25.759,25.759,0,0,1-22.7,13.45Zm0-10.8a11.077,11.077,0,0,0,7-2.25,14.093,14.093,0,0,0,4.45-6.4,27.514,27.514,0,0,0,1.55-9.65,27.834,27.834,0,0,0-1.55-9.75,14.093,14.093,0,0,0-4.45-6.4,11.077,11.077,0,0,0-7-2.25,10.923,10.923,0,0,0-6.9,2.25,14.093,14.093,0,0,0-4.45,6.4,27.834,27.834,0,0,0-1.55,9.75,27.514,27.514,0,0,0,1.55,9.65,14.093,14.093,0,0,0,4.45,6.4A10.923,10.923,0,0,0,205.3,216.6Zm58.6,10.8a21.138,21.138,0,0,1-12.05-3.45,22.094,22.094,0,0,1-7.95-10,39.674,39.674,0,0,1-2.8-15.65,33.682,33.682,0,0,1,3.35-15.6,25.9,25.9,0,0,1,8.75-10.05,20.572,20.572,0,0,1,11.5-3.55,17.738,17.738,0,0,1,8,1.65,30.945,30.945,0,0,1,6.5,4.45l-.5-8.9v-20h13.1V226H281.1l-1-6h-.4a29.788,29.788,0,0,1-7.15,5.25A18.177,18.177,0,0,1,263.9,227.4Zm3.3-10.9a12.86,12.86,0,0,0,6-1.45,18.1,18.1,0,0,0,5.5-4.75V184.6a17.3,17.3,0,0,0-5.6-3.65,16.116,16.116,0,0,0-5.7-1.05,10.36,10.36,0,0,0-6.3,2.15,15.16,15.16,0,0,0-4.7,6.2,24.187,24.187,0,0,0-1.8,9.85,29.6,29.6,0,0,0,1.5,10.1,12.968,12.968,0,0,0,4.35,6.2A11.066,11.066,0,0,0,267.2,216.5Zm57.6,10.9q-9,0-13.1-5.8t-4.1-16.3V170.5h13.1v33.2q0,6.7,2.05,9.55t6.55,2.85a11.576,11.576,0,0,0,6.4-1.8,25.082,25.082,0,0,0,5.9-5.8v-38h13.1V226H343.9l-1-8.2h-.3a35.435,35.435,0,0,1-7.9,6.95A18.161,18.161,0,0,1,324.8,227.4Zm69.5,0a27.061,27.061,0,0,1-13.65-3.45,24.808,24.808,0,0,1-9.6-10,32.4,32.4,0,0,1-3.55-15.65q0-9.3,3.9-15.8a26.679,26.679,0,0,1,10.25-9.95,28.347,28.347,0,0,1,13.75-3.45,22.211,22.211,0,0,1,9.2,1.8,26.829,26.829,0,0,1,7,4.5l-6.3,8.4a18.53,18.53,0,0,0-4.4-2.9,11.462,11.462,0,0,0-4.8-1,14.05,14.05,0,0,0-7.85,2.25,14.739,14.739,0,0,0-5.35,6.4,23.234,23.234,0,0,0-1.9,9.75,22.973,22.973,0,0,0,1.9,9.65,15.149,15.149,0,0,0,5.2,6.4,13,13,0,0,0,7.5,2.25,14.511,14.511,0,0,0,6.2-1.35,24.173,24.173,0,0,0,5.3-3.35l5.3,8.7a26.825,26.825,0,0,1-8.65,5.1A27.9,27.9,0,0,1,394.3,227.4Zm47,0q-6.4,0-10.25-2.55a14.518,14.518,0,0,1-5.6-7.1,29.284,29.284,0,0,1-1.75-10.55V180.9h-7.9v-9.8l8.7-.6,1.4-15.2h10.9v15.2h14.1v10.4H436.8v26.4q0,4.8,1.95,7.25T444.7,217a11.812,11.812,0,0,0,2.95-.4,20.5,20.5,0,0,0,2.75-.9l2.2,9.6q-2.2.7-5.05,1.4A26.188,26.188,0,0,1,441.3,227.4Zm21.3-1.4V170.5h13.1V226Zm6.6-65.2a7.809,7.809,0,0,1-5.7-2.05,7.27,7.27,0,0,1-2.1-5.45,7.143,7.143,0,0,1,2.1-5.35,7.809,7.809,0,0,1,5.7-2.05,7.89,7.89,0,0,1,5.6,2.05,6.975,6.975,0,0,1,2.2,5.35,7.1,7.1,0,0,1-2.2,5.45A7.89,7.89,0,0,1,469.2,160.8Zm45.7,66.6a25.759,25.759,0,0,1-22.7-13.45,31.327,31.327,0,0,1-3.7-15.65q0-9.3,3.7-15.8a26.035,26.035,0,0,1,32.65-11.45,25.24,25.24,0,0,1,8.45,5.7,27.128,27.128,0,0,1,5.85,9.15,33.335,33.335,0,0,1,2.15,12.4,31.326,31.326,0,0,1-3.7,15.65,25.759,25.759,0,0,1-22.7,13.45Zm0-10.8a11.077,11.077,0,0,0,7-2.25,14.094,14.094,0,0,0,4.45-6.4,27.513,27.513,0,0,0,1.55-9.65,27.833,27.833,0,0,0-1.55-9.75,14.094,14.094,0,0,0-4.45-6.4,11.077,11.077,0,0,0-7-2.25,10.923,10.923,0,0,0-6.9,2.25,14.094,14.094,0,0,0-4.45,6.4A27.835,27.835,0,0,0,502,198.3a27.514,27.514,0,0,0,1.55,9.65,14.094,14.094,0,0,0,4.45,6.4A10.923,10.923,0,0,0,514.9,216.6Zm39.3,9.4V170.5h10.7L566,178h.2a40.722,40.722,0,0,1,8.1-6.3,19.476,19.476,0,0,1,10.1-2.6q8.9,0,13,5.8t4.1,16.3V226H588.4V192.9q0-6.9-2.05-9.7t-6.55-2.8a11.571,11.571,0,0,0-6.35,1.75,40.063,40.063,0,0,0-6.15,5.05V226Z" transform="translate(227.4 -4.4) rotate(90)" fill="#e5e5e5"/>
</svg>
