<svg xmlns="http://www.w3.org/2000/svg" xmlns:xlink="http://www.w3.org/1999/xlink" width="501.357" height="61.068" viewBox="0 0 501.357 61.068">
  <defs>
    <filter id="パス_1" x="0" y="0" width="501.357" height="61.068" filterUnits="userSpaceOnUse">
      <feOffset dy="3" input="SourceAlpha"/>
      <feGaussianBlur stdDeviation="3" result="blur"/>
      <feFlood flood-opacity="0.161"/>
      <feComposite operator="in" in2="blur"/>
      <feComposite in="SourceGraphic"/>
    </filter>
  </defs>
  <g transform="matrix(1, 0, 0, 1, 0, 0)" filter="url(#パス_1)">
    <path id="パス_1-2" data-name="パス 1" d="M6.708,3.016c1.872,0,4.42-1.872,7.956-4a23.729,23.729,0,0,0,3.588-3.068c0-1.56-1.092-.156-2.184.208-2.288.832-4.264,1.768-5.46,2.236A15.957,15.957,0,0,1,5.876-.364a1.07,1.07,0,0,1-.988-.52c-.468-.884.364-3.276.624-4.108,2.288-7.852,4.732-14.04,6.76-21.112.416-1.3,1.144-3.276.832-4.68-.312-1.3-1.664-3.276-3.172-2.132-1.3.936-.728,3.9-.988,5.148a61.363,61.363,0,0,1-2.236,6.812C5.46-17.212,4.16-13.468,3.068-9.672,1.924-5.668-.26.364,3.484,2.288A7.017,7.017,0,0,0,6.708,3.016ZM24.284.78a11.689,11.689,0,0,0,7.956-3.9c1.508-1.768,1.508-3.588,1.2-3.276-3.38,3.38-7.072,4.576-9.672,4.576A2.9,2.9,0,0,1,21.58-2.5c-.832-.936-.78-2.444-.312-4a6.126,6.126,0,0,0,3.068.884,2.747,2.747,0,0,0,.676-.052,7.349,7.349,0,0,0,5.2-5.1,7.305,7.305,0,0,0,.416-2.444,5.045,5.045,0,0,0-.052-.884,2.415,2.415,0,0,0-1.3-1.924,3.226,3.226,0,0,0-1.664-.468c-3.692,0-9.828,5.356-9.828,11.076A5,5,0,0,0,19.656-.936,7.867,7.867,0,0,0,24.284.78Zm-1.82-9.464c1.456-2.652,5.356-5.72,5.72-5.044.416.728-2.652,3.8-3.172,4.16C24.388-9,23.4-8.216,22.464-8.684ZM35.308.624a1.109,1.109,0,0,0,1.248-.676,11.076,11.076,0,0,1-.1-1.4,33.261,33.261,0,0,1,.884-4.316,57.394,57.394,0,0,1,2.236-6.188c1.352-.26,2.7-.416,4.212-.676,2.652-.468,6.084-3.12,4.16-3.12-1.456,0-2.5.156-4.108.208-1.092.052-1.924.208-2.964.208.78-1.976,1.612-4,2.028-4.888.728-1.716,2.08-4.784,2.756-6.5.26-.728-1.04-2.236-2.236-2.236a1.518,1.518,0,0,0-.468.1c-.572.26-1.612,2.652-2.028,3.744L38.584-19.6c-.884,2.132-1.092,2.756-1.768,4.42-2.652.52-3.536.052-3.536,2.132,0,.832.208,1.248,1.144,1.248a11.346,11.346,0,0,1,1.248-.052A34.623,34.623,0,0,0,33.28-2.548a3.332,3.332,0,0,0,.26,1.872A2.15,2.15,0,0,0,35.308.624Zm13.572,0a1.109,1.109,0,0,0,1.248-.676,11.076,11.076,0,0,1-.1-1.4,33.261,33.261,0,0,1,.884-4.316,57.394,57.394,0,0,1,2.236-6.188c1.352-.26,2.7-.416,4.212-.676,2.652-.468,6.084-3.12,4.16-3.12-1.456,0-2.5.156-4.108.208-1.092.052-1.924.208-2.964.208.78-1.976,1.612-4,2.028-4.888.728-1.716,2.08-4.784,2.756-6.5.26-.728-1.04-2.236-2.236-2.236a1.518,1.518,0,0,0-.468.1c-.572.26-1.612,2.652-2.028,3.744L52.156-19.6c-.884,2.132-1.092,2.756-1.768,4.42-2.652.52-3.536.052-3.536,2.132,0,.832.208,1.248,1.144,1.248a11.346,11.346,0,0,1,1.248-.052,34.623,34.623,0,0,0-2.392,9.308,3.332,3.332,0,0,0,.26,1.872A2.15,2.15,0,0,0,48.88.624ZM64.9.78a11.689,11.689,0,0,0,7.956-3.9c1.508-1.768,1.508-3.588,1.2-3.276-3.38,3.38-7.072,4.576-9.672,4.576A2.9,2.9,0,0,1,62.192-2.5c-.832-.936-.78-2.444-.312-4a6.126,6.126,0,0,0,3.068.884,2.747,2.747,0,0,0,.676-.052,7.349,7.349,0,0,0,5.2-5.1,7.305,7.305,0,0,0,.416-2.444,5.046,5.046,0,0,0-.052-.884,2.415,2.415,0,0,0-1.3-1.924,3.226,3.226,0,0,0-1.664-.468c-3.692,0-9.828,5.356-9.828,11.076A5,5,0,0,0,60.268-.936,7.867,7.867,0,0,0,64.9.78Zm-1.82-9.464c1.456-2.652,5.356-5.72,5.72-5.044.416.728-2.652,3.8-3.172,4.16C65-9,64.012-8.216,63.076-8.684ZM76.908.676c.572,0,1.56-2.288,2.028-3.484.52-1.248,1.3-2.756,1.976-4.056a18.345,18.345,0,0,1,4.316-5.148c.936,2.184,1.82,3.172,3.588,3.172.832,0,1.976-1.352,1.612-1.612a6.933,6.933,0,0,1-2.444-3.8c-.52-1.612-1.976-2.132-3.068-1.2a23.869,23.869,0,0,0-5.252,6.552,37.283,37.283,0,0,0,1.872-5.772c.1-.832.1-1.352-2.236-2.236-.676-.26-1.716.416-3.9,9.828A62.33,62.33,0,0,0,74-.936C74-.052,74.36.676,76.908.676Zm31.044,7.072a.649.649,0,0,0,.78-.52c-1.2-5.2-.156-10.14.728-14.456a20.615,20.615,0,0,1,1.04-3.484c2.288-.572,4.836-1.04,6.864-1.352,5.044-.78,7.176-2.184,4.472-2.548a44.88,44.88,0,0,0-9.932.416,83.934,83.934,0,0,1,4.212-10.452c.832-1.716,2.808-6.448,4.888-7.176a1.791,1.791,0,0,1,.468-.052c.52,0,.676.416.624,1.04-.052,1.612-1.4,4.524-1.664,5.2a15.077,15.077,0,0,0-1.3,2.964c0,.416.78.728,1.768.624,1.144-.052,1.456-.676,2.288-2.028,1.04-1.924,2.444-3.8,2.34-6.344-.312-2.236-2.444-4.732-4.784-4.888-5.2-.208-9.984,13.26-12.792,21.424-.78.208-1.092.156-2.132.416-1.716.416-2.288.572-2.288,1.144a4.319,4.319,0,0,0,.416,1.4c.312.78.624.988,1.2.988a6.906,6.906,0,0,0,1.56-.26,24.139,24.139,0,0,0-1.04,4.472,44.8,44.8,0,0,0-.676,5.3,15.862,15.862,0,0,0,.208,4.16c.26,1.352.572,3.328,2.028,3.848A2.041,2.041,0,0,0,107.952,7.748Zm14.2-7.072c.572,0,1.56-2.288,2.028-3.484.52-1.248,1.3-2.756,1.976-4.056a18.345,18.345,0,0,1,4.316-5.148c.936,2.184,1.82,3.172,3.588,3.172.832,0,1.976-1.352,1.612-1.612a6.933,6.933,0,0,1-2.444-3.8c-.52-1.612-1.976-2.132-3.068-1.2A23.869,23.869,0,0,0,124.9-8.892a37.283,37.283,0,0,0,1.872-5.772c.1-.832.1-1.352-2.236-2.236-.676-.26-1.716.416-3.9,9.828a62.33,62.33,0,0,0-1.4,6.136C119.236-.052,119.6.676,122.148.676ZM141.752,0c2.392,0,4.472-2.236,6.136-4.108,1.4-1.612,2.912-3.016,3.224-5.3a3.433,3.433,0,0,0,.052-.728c0-2.236-1.82-2.7-3.484-4.108-.572-.468-.624-.572-.624-.728v-.1a2.6,2.6,0,0,0-.312-.988,3.918,3.918,0,0,0-2.548-1.716c-1.82.26-4.16,5.3-4.992,6.76a15.184,15.184,0,0,0-1.976,6.656,3.644,3.644,0,0,0,2.5,3.848A4.206,4.206,0,0,0,141.752,0Zm-.884-3.016c-.26,0-.416-.208-.416-.624a9.285,9.285,0,0,1,.624-2.34c.52-1.4,1.56-4.576,3.536-5.72.884-.52,3.12.26,3.12.208a.915.915,0,0,1,.312.676C148.044-9.152,142.324-3.016,140.868-3.016ZM156.416,1.56a.647.647,0,0,0,.624-.416,45.366,45.366,0,0,1,5.616-8.06,46.835,46.835,0,0,1,5.356-5.564c-.364,2.7-.936,5.356-1.092,6.24a18.61,18.61,0,0,0-.572,3.172A2.459,2.459,0,0,0,167.6-.78a1.872,1.872,0,0,0,1.144.364c1.612,0,4.316-5.252,7.592-9.2-1.352,5.408-.416,7.852,1.144,9.1A6.5,6.5,0,0,0,181.792.624c3.588-.364,7.956-6.916,6.292-5.824-.832.364-5.512,4-8.008,2.912-.936-.416-.624-3.848-.052-9.36.1-.988-1.352-2.912-3.172-2.912-1.092,0-4.212,3.744-6.5,6.916.1-2.184.364-4.316.26-5.3-.1-.884-.832-2.912-2.288-3.172-1.664-.312-3.744,2.08-4.836,3.172-.416.416-4.316,4.576-5.148,6.24,1.04-2.756,2.392-5.98,2.964-8.112.208-.936.312-1.508-1.3-2.34-1.4-.728-1.456-.832-2.808,2.808-.936,2.5-4.108,11.492-4.108,13.364C153.088.624,154.6,1.56,156.416,1.56ZM204.256,0c.624-1.248,1.56-3.9,2.028-4.992a22.872,22.872,0,0,1,.832-2.392c2.652.208,9.62-1.508,13.832-5.72a14.944,14.944,0,0,0,2.912-4A8.275,8.275,0,0,0,225-20.9a13.421,13.421,0,0,0,.052-3.536,11.456,11.456,0,0,0-6.552-8.216,12.531,12.531,0,0,0-5.512-.884c-.624-.1-.988-.364-1.56-.468-.364.052-.78,0-.936.884-.208.1-3.068,1.872-3.38,2.08-.988.676-.364,1.352,0,2.288a1.717,1.717,0,0,0,1.872,1.3,42.213,42.213,0,0,1-2.08,7.54c-1.2,3.9-2.6,7.9-3.588,11.856-.416,1.872-2.392,6.6-1.508,7.332C202.384.052,203.372,1.716,204.256,0Zm3.432-9.724c1.82-5.928,3.484-10.5,3.952-12.272,1.04-3.692,1.2-4.16,2.236-7.7,3.9-.364,5.564.676,6.864,1.872,2.236,2.184,2.184,5.564.78,8.216a16.514,16.514,0,0,1-3.484,4.316C217.308-14.612,211.848-10.036,207.688-9.724ZM226.356.676c.572,0,1.56-2.288,2.028-3.484.52-1.248,1.3-2.756,1.976-4.056a18.345,18.345,0,0,1,4.316-5.148c.936,2.184,1.82,3.172,3.588,3.172.832,0,1.976-1.352,1.612-1.612a6.933,6.933,0,0,1-2.444-3.8c-.52-1.612-1.976-2.132-3.068-1.2a23.869,23.869,0,0,0-5.252,6.552,37.285,37.285,0,0,0,1.872-5.772c.1-.832.1-1.352-2.236-2.236-.676-.26-1.716.416-3.9,9.828a62.33,62.33,0,0,0-1.4,6.136C223.444-.052,223.808.676,226.356.676Zm20.9.1a11.689,11.689,0,0,0,7.956-3.9c1.508-1.768,1.508-3.588,1.2-3.276-3.38,3.38-7.072,4.576-9.672,4.576a2.9,2.9,0,0,1-2.184-.676c-.832-.936-.78-2.444-.312-4a6.126,6.126,0,0,0,3.068.884,2.747,2.747,0,0,0,.676-.052,7.349,7.349,0,0,0,5.2-5.1,7.305,7.305,0,0,0,.416-2.444,5.045,5.045,0,0,0-.052-.884,2.415,2.415,0,0,0-1.3-1.924,3.226,3.226,0,0,0-1.664-.468c-3.692,0-9.828,5.356-9.828,11.076a5,5,0,0,0,1.872,4.472A7.867,7.867,0,0,0,247.26.78Zm-1.82-9.464c1.456-2.652,5.356-5.72,5.72-5.044.416.728-2.652,3.8-3.172,4.16C247.364-9,246.376-8.216,245.44-8.684Zm18.3,10.452c1.144,0,1.612-.468,1.612-2.028a36.774,36.774,0,0,0-.988-5.46,42.857,42.857,0,0,1-1.248-4.888c-.572-2.808.208-4.108,1.04-4.108.572,0,.884.312,1.144,1.092a3.5,3.5,0,0,1,.156.936c0,.624-.208,1.04-.208,1.456a1.152,1.152,0,0,0,.416.832,2.179,2.179,0,0,0,1.4.676c.832,0,1.4-.936,1.4-2.5,0-2.86-2.028-5.408-5.044-5.1-3.224.416-4.108,2.652-4.108,5.2a16.4,16.4,0,0,0,1.144,5.356c.468,1.352,1.82,5.252,1.352,5.564-1.664-.728-3.172-4.524-4.264-4.524a1.356,1.356,0,0,0-.572.156c-.572.312-.832.624-.832,1.04,0,1.664,4.42,6.24,6.76,6.24A5.062,5.062,0,0,0,263.744,1.768Zm13.78-20.54c1.352,0,3.016-3.12,3.016-4.368a2.085,2.085,0,0,0-.468-1.56,2.4,2.4,0,0,0-1.612-.884c-1.508,0-2.184,2.964-2.184,4.16a4.3,4.3,0,0,0,.312,1.924A1.114,1.114,0,0,0,277.524-18.772ZM276.38.624c3.588-.312,7.956-6.916,6.292-5.824-.832.364-5.408,4.264-7.8,2.912A1.92,1.92,0,0,1,274.144-4c0-2.132.728-5.044,2.808-9.412.364-.728.26-1.4-1.56-1.82-1.092-.312-1.56-.208-2.236,1.456a44.161,44.161,0,0,0-2.132,6.76C269.828-1.092,273.468.884,276.38.624Zm23.712,0c3.588-.312,7.956-6.916,6.292-5.824-.728.312-4.316,3.12-6.916,3.12a2.558,2.558,0,0,1-1.092-.208c-.468-.208-.988-.936-.988-2.652a21.149,21.149,0,0,1,1.2-6.084,32.037,32.037,0,0,1,2.028-4.888c.156-.364,2.86-6.916,4.836-11.8a8.023,8.023,0,0,0,.728-2.808,2.858,2.858,0,0,0-.52-1.664c-.572-.78-1.092-1.144-1.508-1.144-.676,0-1.144.78-1.508,1.872-1.248,3.744-3.016,7.332-4.524,10.972-.676,1.664-1.248,3.276-1.872,4.94-.364.936-.468,1.352-.676,1.352-.156,0-.416-.26-.988-.78a4.473,4.473,0,0,0-2.912-1.3c-1.664,0-3.068,1.3-4.524,3.12-1.56,1.924-3.64,5.2-3.64,8.06a5.087,5.087,0,0,0,.468,2.132,3.838,3.838,0,0,0,3.588,2.34,5.212,5.212,0,0,0,3.432-1.352,14.117,14.117,0,0,0,2.132-2.184,12.707,12.707,0,0,0,1.4-2.08C294.528-1.144,297.18.884,300.092.624ZM286.728-3.9c-.364,0-.312-.364-.312-.572,0-2.444,4.732-8.476,6.552-8.476.364,0,.988.728.988,1.092C293.956-10.452,288.34-3.9,286.728-3.9ZM312.364.78a11.69,11.69,0,0,0,7.956-3.9c1.508-1.768,1.508-3.588,1.2-3.276-3.38,3.38-7.072,4.576-9.672,4.576A2.9,2.9,0,0,1,309.66-2.5c-.832-.936-.78-2.444-.312-4a6.126,6.126,0,0,0,3.068.884,2.747,2.747,0,0,0,.676-.052,7.349,7.349,0,0,0,5.2-5.1,7.305,7.305,0,0,0,.416-2.444,5.045,5.045,0,0,0-.052-.884,2.415,2.415,0,0,0-1.3-1.924,3.226,3.226,0,0,0-1.664-.468c-3.692,0-9.828,5.356-9.828,11.076a5,5,0,0,0,1.872,4.472A7.867,7.867,0,0,0,312.364.78Zm-1.82-9.464c1.456-2.652,5.356-5.72,5.72-5.044.416.728-2.652,3.8-3.172,4.16C312.468-9,311.48-8.216,310.544-8.684ZM338.416.624a5.668,5.668,0,0,0,1.352-.156c1.508-.364,2.5-1.144,3.952-2.652,1.2-1.2,1.82-3.016,1.352-2.808a14.139,14.139,0,0,0-1.924,1.144c-1.04.624-2.964,2.132-4.42,2.132-1.612,0-1.82-1.612-1.82-3.38a20.927,20.927,0,0,1,.676-4.524,16.829,16.829,0,0,0,.624-3.224c0-1.04-1.56-2.184-2.392-2.184-1.144,0-3.588,1.768-4.68,2.86C328.8-9.88,328.224-9.36,326.2-7.28c1.248-3.172,2.444-6.968,2.7-7.54.208-.936.312-1.508-1.3-2.34-1.4-.728-1.872-.832-2.34,1.04-2.236,8.476-3.9,12.9-3.9,14.092a2.481,2.481,0,0,0,.676,1.612,1.966,1.966,0,0,0,1.4.884c.988,0,1.82-1.2,2.5-2.132.78-.988,2.6-2.912,3.744-4.056.312-.26,3.848-4.16,4.732-4.732-1.2,4.16-1.092,7.488-.156,8.944A5.309,5.309,0,0,0,338.416.624Zm7.384,0a1.109,1.109,0,0,0,1.248-.676,11.076,11.076,0,0,1-.1-1.4,33.26,33.26,0,0,1,.884-4.316,57.4,57.4,0,0,1,2.236-6.188c1.352-.26,2.7-.416,4.212-.676,2.652-.468,6.084-3.12,4.16-3.12-1.456,0-2.5.156-4.108.208-1.092.052-1.924.208-2.964.208.78-1.976,1.612-4,2.028-4.888.728-1.716,2.08-4.784,2.756-6.5.26-.728-1.04-2.236-2.236-2.236a1.518,1.518,0,0,0-.468.1c-.572.26-1.612,2.652-2.028,3.744l-2.34,5.512c-.884,2.132-1.092,2.756-1.768,4.42-2.652.52-3.536.052-3.536,2.132,0,.832.208,1.248,1.144,1.248a11.346,11.346,0,0,1,1.248-.052,34.623,34.623,0,0,0-2.392,9.308,3.332,3.332,0,0,0,.26,1.872A2.15,2.15,0,0,0,345.8.624Zm43.888,3.484c2.964,0,9.516-3.224,9.516-5.408a1.952,1.952,0,0,0-.728-1.3,1.572,1.572,0,0,0-.936-.468c-.728,0-1.352,1.04-3.224,2.444-1.4.936-3.016,1.872-4.42,1.872a2.558,2.558,0,0,1-2.08-1.04c-.624-.936-.78-1.352-.676-1.56,3.536-2.808,10.244-9.152,11.024-9.464a.942.942,0,0,0,.572-1.04c-.364-1.3-1.4-1.56-2.756-1.56-1.092,0-2.392.156-3.744.156a8.964,8.964,0,0,1-3.64-.624c-.416-.208-1.664.728-1.664,1.612a.908.908,0,0,0,.364.728,8.617,8.617,0,0,0,5.46,1.2c-5.148,4.472-6.656,6.032-7.28,6.032-.364,0-.52-.468-.884-1.2a61.5,61.5,0,0,1-3.068-8.112c4.264-4.316,8.684-8.788,12.376-12.584a2.516,2.516,0,0,0,.468-1.4c0-2.236-2.5-4.316-6.24-4.316-3.9,0-9.152,2.392-10.608,10.192a8.672,8.672,0,0,0-.1,1.612,20.4,20.4,0,0,0,.832,5.044c-2.7,3.8-5.252,6.916-5.98,13,.156,3.536,1.716,5.928,4.472,5.928a5.985,5.985,0,0,0,2.028-.364c2.964-.676,3.848-1.716,5.616-2.6A5.62,5.62,0,0,0,389.688,4.108ZM381-17.836c-.052-.624-.1-1.2-.1-1.768,0-5.408,3.224-9,7.7-9,1.248,0,1.664.156,1.664.416,0,.312-.364.676-.78,1.2C386.62-24.076,384.02-21.476,381-17.836ZM377.884.676c-1.2,0-2.132-.676-2.132-2.652,0-2.7.832-4.784,3.224-8.528.624,1.144.884,2.6,3.8,8.216C382.772-1.4,379.912.676,377.884.676Zm48.984,1.612c8.528,0,13.832-10.816,11.284-8.892C435.5-4.264,431.5-.572,427.6-.572c-2.548,0-4.472-1.716-4.056-6.344.624-7.28,7.644-23.92,13-23.92a1.36,1.36,0,0,1,1.508,1.56c0,1.2-1.872,6.24-2.6,7.592s2.08,1.352,3.068.728,2.86-4.264,2.86-7.644-1.664-6.188-5.72-6.188c-6.344,0-14.872,16.692-15.5,26.78C419.692-.052,423.852,2.288,426.868,2.288Zm21.476.364c1.508-.364,6.292-2.236,6.552-5.512.052-.624-1.872.78-3.068,1.248a14.269,14.269,0,0,1-5.3,1.352,3.447,3.447,0,0,1-3.588-2.7c-.26-1.144.468-3.38,1.976-8.476,1.092-.312,1.768-.416,4.264-.884,6.656-1.248,9.88-4,7.384-4-4.264,0-6.76.052-10.036.26.312-1.508,3.38-9.256,4.68-12.948a44.077,44.077,0,0,1,10.452-.78,5.335,5.335,0,0,1,2.132.572c1.248,0-.26-1.976-.52-2.236-1.612-1.768-7.072-2.5-9.932-2.08a7.717,7.717,0,0,0-2.756.676,3.381,3.381,0,0,0-1.924-.78c-1.352,0-2.028,1.092-2.548,2.34-.208.572-.728,1.248-.52,1.82.208.624.884.468.988,1.2.1.416-1.768,5.1-2.132,6.24-.052.26-2.288,6.188-2.132,6.5-1.82.26-3.12.676-3.952.728-.572.052-.468,1.664.1,2.184a13.986,13.986,0,0,0,2.288,1.612c-.52,1.976-1.352,4-1.82,5.98C437.736.572,443.612,3.9,448.344,2.652Zm21.736-.1c2.7,0,10.4-6.188,10.4-8.32a1.253,1.253,0,0,0-.364-.936c-.468-.78,4.628-10.4,4.628-17.628a8.96,8.96,0,0,0-1.4-5.2c-1.716-2.548-3.64-3.64-5.616-3.64-7.384,0-15.392,15.444-15.392,26.052C462.332-1.664,464.516,2.548,470.08,2.548ZM469.4-.208a1.769,1.769,0,0,1-.52-.052c-1.664-.156-3.172-2.652-3.172-6.812,0-4.576,1.768-11.076,6.916-18.824,2.808-2.808,4.888-4,6.292-4,1.82,0,2.548,1.2,2.548,3.8C481.468-16.692,475.02-.208,469.4-.208Z" transform="translate(7.61 41.31)" fill="#fff"/>
  </g>
</svg>
