<svg xmlns="http://www.w3.org/2000/svg" width="141.903" height="54.704" viewBox="0 0 141.903 54.704">
  <path id="パス_2" data-name="パス 2" d="M-71.214,3.848c.936.156,2.964.884,3.328,0,.416-.936.884-2.08,1.3-3.12.676-1.56,1.456-3.068,1.976-4.68,2.34-5.928,5.044-12.428,7.852-18.668a33.13,33.13,0,0,0,1.3-3.588c-.1,2.6-.572,10.972-.416,14.04C-55.3-.78-55.042-.052-52.442-.052c1.664,0,2.028-.364,4.68-6.084C-45.734-10.5-44.642-13-44.694-13c.78-1.664,1.612-3.276,2.5-4.888,1.092-1.924,1.976-4,3.536-6.4C-40.794-14.508-41.678-9.672-41.678-2.6c0,1.352-.416,3.536.364,4.888.832,1.456,3.068,2.132,3.172,1.144s-.312-3.744,0-6.916a130.88,130.88,0,0,1,2.86-17.992c.676-2.808,1.664-7.072,2.184-8.424.572-1.508-3.588-2.756-4.524-1.456a97.361,97.361,0,0,0-5.3,8.216c-1.456,2.392-2.7,4.94-4.108,7.384-1.612,2.86-4,8.528-4.888,8.528-.364,0-.364-2.236-.416-3.38-.052-2.132.884-12.012,1.3-16.484.1-1.612.988-3.38.312-4.888-.52-1.092-1.4-1.664-3.276-1.664a3.3,3.3,0,0,0-2.5,1.976c-3.172,6.032-5.564,12.428-8.32,18.616-1.456,3.328-2.964,6.6-4.42,9.932C-70.33-.728-73.4,3.432-71.214,3.848ZM-25.766.78a11.689,11.689,0,0,0,7.956-3.9C-16.3-4.888-16.3-6.708-16.614-6.4c-3.38,3.38-7.072,4.576-9.672,4.576A2.9,2.9,0,0,1-28.47-2.5c-.832-.936-.78-2.444-.312-4a6.126,6.126,0,0,0,3.068.884,2.747,2.747,0,0,0,.676-.052,7.349,7.349,0,0,0,5.2-5.1,7.305,7.305,0,0,0,.416-2.444,5.045,5.045,0,0,0-.052-.884,2.415,2.415,0,0,0-1.3-1.924,3.226,3.226,0,0,0-1.664-.468c-3.692,0-9.828,5.356-9.828,11.076A5,5,0,0,0-30.394-.936,7.867,7.867,0,0,0-25.766.78Zm-1.82-9.464c1.456-2.652,5.356-5.72,5.72-5.044.416.728-2.652,3.8-3.172,4.16C-25.662-9-26.65-8.216-27.586-8.684Zm18.3,10.452C-8.138,1.768-7.67,1.3-7.67-.26a36.775,36.775,0,0,0-.988-5.46,42.85,42.85,0,0,1-1.248-4.888c-.572-2.808.208-4.108,1.04-4.108.572,0,.884.312,1.144,1.092a3.5,3.5,0,0,1,.156.936c0,.624-.208,1.04-.208,1.456a1.152,1.152,0,0,0,.416.832,2.179,2.179,0,0,0,1.4.676c.832,0,1.4-.936,1.4-2.5,0-2.86-2.028-5.408-5.044-5.1-3.224.416-4.108,2.652-4.108,5.2A16.4,16.4,0,0,0-12.558-6.76c.468,1.352,1.82,5.252,1.352,5.564C-12.87-1.924-14.378-5.72-15.47-5.72a1.356,1.356,0,0,0-.572.156c-.572.312-.832.624-.832,1.04,0,1.664,4.42,6.24,6.76,6.24A5.062,5.062,0,0,0-9.282,1.768Zm14.04,0C5.9,1.768,6.37,1.3,6.37-.26a36.775,36.775,0,0,0-.988-5.46,42.85,42.85,0,0,1-1.248-4.888c-.572-2.808.208-4.108,1.04-4.108.572,0,.884.312,1.144,1.092a3.5,3.5,0,0,1,.156.936c0,.624-.208,1.04-.208,1.456a1.152,1.152,0,0,0,.416.832,2.179,2.179,0,0,0,1.4.676c.832,0,1.4-.936,1.4-2.5,0-2.86-2.028-5.408-5.044-5.1C1.222-16.9.338-14.664.338-12.116A16.4,16.4,0,0,0,1.482-6.76C1.95-5.408,3.3-1.508,2.834-1.2,1.17-1.924-.338-5.72-1.43-5.72A1.356,1.356,0,0,0-2-5.564c-.572.312-.832.624-.832,1.04,0,1.664,4.42,6.24,6.76,6.24A5.062,5.062,0,0,0,4.758,1.768Zm22.048-.676c3.588-.364,7.436-7.488,5.876-6.24-.728.364-4.108,3.38-6.708,3.588-1.352.1-1.716-.78-1.716-1.924,0-2.912,1.924-7.7,3.328-10.244.364-.676-.156-1.456-1.144-1.924-.52-.312-1.82-.988-2.444,0-2.86-1.976-6.5,0-9,2.756C10.738-8.32,7.826-.832,13.442-.208c1.82.156,4.42-1.092,7.7-4.628C21.45-.936,23.79,1.4,26.806,1.092ZM13.65-3.692c2.132-5.408,7.28-10.452,8.736-9.1C22.386-9.88,12.61-.312,13.65-3.692ZM32.37,21.06c7.384,0,11.7-9.776,13.832-15.652.468-1.3,2.6-9.516,3.536-14.3.468-1.352,2.08-2.86,2.08-4.212a1.8,1.8,0,0,0-.78-1.456,3.139,3.139,0,0,0-1.768-.728A3.674,3.674,0,0,0,47.554-14.2a6.619,6.619,0,0,0-4.472-2.236,4.464,4.464,0,0,0-2.34.78A17.615,17.615,0,0,0,34.918-8.84c-.78,1.56-1.924,4.056-1.924,6.084a3.985,3.985,0,0,0,.208,1.4,4.192,4.192,0,0,0,3.64,2.6c2.5,0,7.436-5.928,9.412-8.892-.1.572-.312,1.768-.468,2.288-.624,2.236-1.092,4.42-1.3,5.1C42.614,6.6,38.142,17.784,32.318,17.784c-3.224,0-4.68-2.652-5.72-6.4-.364-1.352-.936,1.3-.936,2.5C25.662,17.992,28.47,21.06,32.37,21.06ZM36.322-2.08c-.26,0-.364-.312-.364-.52,0-1.664,3.172-5.928,3.8-6.708.728-.884,2.964-3.744,4.576-3.744a3.361,3.361,0,0,1,1.664.884C44.434-9.516,38.142-2.08,36.322-2.08ZM60.606.78a11.689,11.689,0,0,0,7.956-3.9c1.508-1.768,1.508-3.588,1.2-3.276-3.38,3.38-7.072,4.576-9.672,4.576A2.9,2.9,0,0,1,57.9-2.5c-.832-.936-.78-2.444-.312-4a6.126,6.126,0,0,0,3.068.884,2.747,2.747,0,0,0,.676-.052,7.349,7.349,0,0,0,5.2-5.1,7.305,7.305,0,0,0,.416-2.444,5.045,5.045,0,0,0-.052-.884,2.415,2.415,0,0,0-1.3-1.924,3.226,3.226,0,0,0-1.664-.468c-3.692,0-9.828,5.356-9.828,11.076A5,5,0,0,0,55.978-.936,7.867,7.867,0,0,0,60.606.78Zm-1.82-9.464c1.456-2.652,5.356-5.72,5.72-5.044.416.728-2.652,3.8-3.172,4.16C60.71-9,59.722-8.216,58.786-8.684Z" transform="translate(71.98 33.644)" fill="#333"/>
</svg>
